<?xml version="1.0" encoding="UTF-8" standalone="no"?><!DOCTYPE svg PUBLIC "-//W3C//DTD SVG 1.1//EN" "http://www.w3.org/Graphics/SVG/1.1/DTD/svg11.dtd"><svg width="100%" height="100%" viewBox="0 0 215 85" version="1.1" xmlns="http://www.w3.org/2000/svg" xmlns:xlink="http://www.w3.org/1999/xlink" xml:space="preserve" xmlns:serif="http://www.serif.com/" style="fill-rule:evenodd;clip-rule:evenodd;stroke-miterlimit:2;"><g><rect x="130.546" y="42.405" width="1.375" height="12.656" style="fill:#1b4798;fill-rule:nonzero;"/><rect x="130.546" y="42.405" width="1.375" height="12.656" style="fill:none;stroke:#1b4798;stroke-width:0.25px;"/><rect x="109.815" y="29.573" width="18.852" height="1.373" style="fill:#1b4798;fill-rule:nonzero;"/><rect x="134.404" y="29.573" width="18.851" height="1.373" style="fill:#1b4798;fill-rule:nonzero;"/><path d="M11.845,6.637l0,10.266c1.015,-0.756 2.115,-1.324 3.298,-1.705c1.184,-0.376 2.447,-0.568 3.796,-0.568c2.074,0 3.836,0.426 5.292,1.279c1.458,0.847 2.346,1.828 2.668,2.938c0.323,1.108 0.482,3.136 0.482,6.077l0,21.604l-11.842,0l0,-22.051c0,-1.825 -0.112,-2.998 -0.337,-3.518c-0.226,-0.519 -0.727,-0.779 -1.509,-0.779c-0.726,0 -1.214,0.268 -1.467,0.802c-0.255,0.535 -0.381,1.6 -0.381,3.187l0,22.359l-11.845,0l0,-39.891l11.845,0Z" style="fill:#1b4798;fill-rule:nonzero;"/><path d="M57.419,26.2l0,7.673c0,2.818 -0.175,4.884 -0.527,6.198c-0.351,1.315 -1.103,2.543 -2.256,3.683c-1.154,1.141 -2.634,1.983 -4.442,2.526c-1.807,0.543 -3.884,0.814 -6.231,0.814c-2.618,0 -4.837,-0.23 -6.655,-0.696c-1.817,-0.462 -3.23,-1.163 -4.236,-2.101c-1.005,-0.936 -1.725,-2.068 -2.154,-3.4c-0.432,-1.329 -0.646,-3.325 -0.646,-5.986l0,-8.026c0,-2.912 0.392,-5.187 1.173,-6.822c0.782,-1.639 2.189,-2.953 4.221,-3.944c2.033,-0.99 4.634,-1.487 7.799,-1.487c2.659,0 4.94,0.319 6.847,0.954c1.906,0.64 3.376,1.471 4.411,2.494c1.036,1.023 1.745,2.077 2.127,3.164c0.381,1.084 0.569,2.737 0.569,4.956Zm-11.844,-2.36c0,-1.605 -0.106,-2.617 -0.322,-3.033c-0.214,-0.419 -0.674,-0.627 -1.376,-0.627c-0.707,0 -1.175,0.208 -1.411,0.627c-0.232,0.416 -0.348,1.428 -0.348,3.033l0,14.141c0,1.481 0.116,2.443 0.348,2.893c0.236,0.449 0.696,0.675 1.38,0.675c0.705,0 1.168,-0.207 1.392,-0.617c0.225,-0.408 0.337,-1.29 0.337,-2.643l0,-14.449Z" style="fill:#1b4798;fill-rule:nonzero;"/><path d="M59.881,46.437l0,-31.142l11.342,-0.037l-0.12,3.295l0.584,-0.518c1.768,-1.763 2.82,-2.406 4.861,-2.975l2,-0.56l0,11.018l-1.473,0.097c-1.398,0.088 -2.493,0.314 -3.252,0.668c-1.037,0.481 -1.686,1.165 -1.927,2.03c-0.235,0.844 -0.353,2.81 -0.353,5.844l0,12.28l-11.662,0Z" style="fill:#1b4798;fill-rule:nonzero;"/><path d="M76.973,16.577l0,7.464c-1.612,0.104 -2.87,0.372 -3.816,0.813c-1.837,0.851 -2.525,2.121 -2.779,3.037c-0.177,0.636 -0.411,1.978 -0.411,6.266l0,10.703l-8.511,0l0,-27.995l8.133,-0.026l-0.084,2.29l0.07,2.885l3.194,-2.83c1.564,-1.565 2.372,-2.096 4.204,-2.607Z" style="fill:#b6cbe9;fill-rule:nonzero;"/><rect x="80.582" y="15.198" width="12.196" height="31.33" style="fill:#1b4798;fill-rule:nonzero;"/><path d="M115.469,15.198l0,6.941l-8.736,18.107l8.736,0l0,6.284l-20.199,0l0,-6.566l8.919,-18.485l-8.01,0l0,-6.281l19.29,0Z" style="fill:#1b4798;fill-rule:nonzero;"/><path d="M160.853,15.198l-0.206,2.886c0.86,-1.15 1.912,-2.013 3.153,-2.59c1.24,-0.574 2.672,-0.862 4.294,-0.862c2.033,0 3.694,0.384 4.986,1.157c1.287,0.771 2.118,1.742 2.49,2.916c0.372,1.172 0.556,3.128 0.556,5.868l0,21.957l-11.841,0l0,-21.698c0,-2.158 -0.09,-3.474 -0.265,-3.943c-0.177,-0.473 -0.665,-0.709 -1.467,-0.709c-0.84,0 -1.366,0.272 -1.583,0.814c-0.217,0.544 -0.323,1.995 -0.323,4.356l0,21.18l-11.843,0l0,-31.332l12.049,0Z" style="fill:#1b4798;fill-rule:nonzero;"/><path d="M201.659,25.208l-9.935,0l0,-1.7c0,-1.447 -0.098,-2.363 -0.292,-2.749c-0.195,-0.388 -0.679,-0.579 -1.458,-0.579c-0.628,0 -1.1,0.178 -1.414,0.531c-0.315,0.354 -0.472,0.885 -0.472,1.594c0,0.961 0.079,1.664 0.235,2.113c0.158,0.45 0.632,0.941 1.415,1.476c0.786,0.536 2.401,1.313 4.843,2.338c3.256,1.352 5.393,2.626 6.41,3.823c1.019,1.197 1.526,2.936 1.526,5.22c0,2.55 -0.387,4.473 -1.166,5.77c-0.776,1.299 -2.076,2.299 -3.896,2.998c-1.824,0.701 -4.021,1.051 -6.591,1.051c-2.85,0 -5.288,-0.375 -7.311,-1.133c-2.03,-0.754 -3.419,-1.779 -4.176,-3.069c-0.762,-1.29 -1.141,-3.241 -1.141,-5.855l0,-1.509l9.937,0l0,1.981c0,1.683 0.123,2.778 0.373,3.282c0.25,0.503 0.745,0.758 1.483,0.758c0.799,0 1.351,-0.172 1.666,-0.51c0.316,-0.338 0.473,-1.048 0.473,-2.133c0,-1.497 -0.205,-2.433 -0.612,-2.812c-0.425,-0.378 -2.599,-1.497 -6.52,-3.354c-3.293,-1.575 -5.301,-3.002 -6.021,-4.285c-0.72,-1.282 -1.083,-2.806 -1.083,-4.568c0,-2.503 0.391,-4.35 1.167,-5.535c0.777,-1.19 2.094,-2.108 3.952,-2.751c1.86,-0.648 4.019,-0.969 6.481,-0.969c2.442,0 4.518,0.264 6.227,0.79c1.712,0.529 3.028,1.225 3.943,2.09c0.916,0.866 1.469,1.668 1.666,2.408c0.192,0.74 0.291,1.899 0.291,3.472l0,1.816Z" style="fill:#1b4798;fill-rule:nonzero;"/><path d="M92.974,5.864c0,3.238 -2.626,5.863 -5.863,5.863c-3.237,0 -5.861,-2.625 -5.861,-5.863c0,-3.239 2.624,-5.864 5.861,-5.864c3.237,0 5.863,2.625 5.863,5.864Z" style="fill:#1b4798;fill-rule:nonzero;"/><path d="M144.765,26.2l0,7.673c0,2.818 -0.175,4.884 -0.527,6.198c-0.353,1.315 -1.104,2.543 -2.258,3.683c-1.152,1.141 -2.633,1.983 -4.442,2.526c-1.808,0.543 -3.884,0.814 -6.229,0.814c-2.619,0 -4.837,-0.23 -6.656,-0.696c-1.816,-0.462 -3.228,-1.163 -4.236,-2.101c-1.007,-0.936 -1.724,-2.068 -2.156,-3.4c-0.428,-1.329 -0.643,-3.325 -0.643,-5.986l0,-8.026c0,-2.912 0.391,-5.187 1.172,-6.822c0.781,-1.639 2.188,-2.953 4.222,-3.944c2.033,-0.99 4.633,-1.487 7.798,-1.487c2.659,0 4.939,0.319 6.847,0.954c1.904,0.64 3.377,1.471 4.41,2.494c1.039,1.023 1.746,2.077 2.128,3.164c0.381,1.084 0.57,2.737 0.57,4.956Zm-11.844,-2.36c0,-1.605 -0.106,-2.617 -0.32,-3.033c-0.218,-0.419 -0.676,-0.627 -1.381,-0.627c-0.703,0 -1.172,0.208 -1.407,0.627c-0.235,0.416 -0.352,1.428 -0.352,3.033l0,14.141c0,1.481 0.117,2.443 0.352,2.893c0.235,0.449 0.694,0.675 1.379,0.675c0.702,0 1.169,-0.207 1.392,-0.617c0.225,-0.408 0.337,-1.29 0.337,-2.643l0,-14.449Z" style="fill:#1b4798;fill-rule:nonzero;"/><rect x="130.546" y="8.07" width="1.375" height="10.991" style="fill:#1b4798;fill-rule:nonzero;"/><path d="M129.461,23.84c0,-1.605 0.117,-2.617 0.352,-3.033c0.235,-0.419 0.704,-0.627 1.407,-0.627c0.006,0 0.581,0.002 0.586,0.002l0,-5.537c-0.14,-0.002 -0.276,-0.013 -0.422,-0.013c-3.166,0 -6.339,0.497 -8.372,1.487c-2.034,0.991 -3.441,2.305 -4.222,3.944c-0.781,1.635 -1.17,3.91 -1.17,6.822l0,3.971l11.841,0l0,-7.016Z" style="fill:#fff;fill-rule:nonzero;"/><path d="M130.432,16.02l0,2.857c-1.012,0.198 -1.54,0.766 -1.815,1.256c-0.263,0.467 -0.531,1.269 -0.531,3.707l0,5.642l-9.093,0l0,-2.597c0,-2.692 0.346,-4.79 1.035,-6.23c0.649,-1.362 1.824,-2.441 3.586,-3.301c1.555,-0.758 4.056,-1.242 6.818,-1.334Zm0.949,-1.388c-3.163,0 -6.338,0.497 -8.37,1.487c-2.033,0.991 -3.44,2.305 -4.222,3.944c-0.782,1.636 -1.171,3.91 -1.171,6.822l0,3.971l11.843,0l0,-7.016c0,-1.605 0.117,-2.617 0.352,-3.033c0.234,-0.419 0.704,-0.627 1.407,-0.627c0.004,0 0.581,0.002 0.586,0.002l0,-5.537c-0.142,-0.002 -0.278,-0.013 -0.425,-0.013Z" style="fill:#1b4798;fill-rule:nonzero;"/><path d="M132.921,29.637l0,8.652c0,1.353 -0.112,2.235 -0.337,2.643c-0.221,0.4 -0.676,0.6 -1.976,0.608l0,5.554l0.701,0c2.345,0 4.421,-0.271 6.229,-0.814c1.809,-0.543 3.29,-1.385 4.442,-2.526c1.154,-1.14 1.905,-2.368 2.258,-3.683c0.352,-1.314 0.527,-3.38 0.527,-6.198l0,-4.236l-11.844,0Z" style="fill:#fff;fill-rule:nonzero;"/><path d="M143.392,31.012l0,2.861c0,2.689 -0.163,4.653 -0.482,5.843c-0.287,1.071 -0.925,2.1 -1.897,3.061c-0.985,0.977 -2.287,1.712 -3.868,2.186c-1.499,0.449 -3.231,0.701 -5.164,0.75l0,-2.913c0.753,-0.147 1.408,-0.48 1.805,-1.204c0.357,-0.646 0.508,-1.635 0.508,-3.307l0,-7.277l9.098,0Zm1.373,-1.375l-11.844,0l0,8.652c0,1.353 -0.113,2.235 -0.337,2.643c-0.221,0.4 -0.676,0.6 -1.976,0.608l0,5.554l0.701,0c2.345,0 4.421,-0.271 6.229,-0.814c1.807,-0.543 3.29,-1.385 4.442,-2.526c1.154,-1.14 1.905,-2.368 2.256,-3.683c0.354,-1.314 0.529,-3.38 0.529,-6.198l0,-4.236Z" style="fill:#1b4798;fill-rule:nonzero;"/><path d="M60.423,44.021l-0.342,0.309c-1.066,0.854 -2.013,1.626 -2.84,2.319c-0.828,0.689 -1.583,1.346 -2.263,1.969c-0.681,0.623 -1.304,1.238 -1.871,1.849c-0.567,0.61 -1.134,1.25 -1.701,1.916c-0.636,0.785 -1.175,1.518 -1.616,2.195c-0.443,0.682 -0.881,1.435 -1.31,2.264l0.441,-0.137c3.676,-1.084 6.936,-1.883 9.784,-2.403c2.845,-0.517 5.403,-0.788 7.672,-0.81l1.259,0c0.612,-0.072 0.918,0.081 0.918,0.448c0,0.115 -0.023,0.23 -0.068,0.346c-0.046,0.115 -0.102,0.253 -0.171,0.414c-0.861,-0.114 -1.628,-0.196 -2.295,-0.243c-0.67,-0.044 -1.334,-0.068 -1.991,-0.068c-3.561,0 -8.019,0.748 -13.372,2.248c-0.5,0.184 -0.952,0.326 -1.361,0.432c-0.408,0.101 -0.749,0.211 -1.021,0.326c-0.204,0.369 -0.392,0.809 -0.561,1.314c-0.171,0.508 -0.323,1.037 -0.46,1.59c-0.135,0.555 -0.243,1.106 -0.324,1.66c-0.078,0.553 -0.118,1.071 -0.118,1.555c0,1.359 0.204,2.598 0.612,3.715c0.408,1.119 0.998,2.074 1.77,2.869c0.771,0.794 1.695,1.404 2.773,1.833c1.078,0.425 2.285,0.638 3.623,0.638c2.905,0 5.819,-0.859 8.745,-2.575c2.927,-1.716 5.863,-4.281 8.812,-7.689l0.307,-0.346l0.339,0.414c-3.47,4.01 -6.861,7.024 -10.172,9.038c-3.312,2.015 -6.522,3.025 -9.63,3.025c-1.338,0 -2.557,-0.227 -3.657,-0.674c-1.101,-0.451 -2.041,-1.078 -2.825,-1.883c-0.782,-0.808 -1.383,-1.768 -1.803,-2.886c-0.419,-1.118 -0.629,-2.356 -0.629,-3.715c0,-1.29 0.153,-2.526 0.459,-3.701c0.306,-1.174 0.822,-2.453 1.549,-3.834l-4.118,1.346l0.137,-0.484c0.136,-0.044 0.249,-0.085 0.34,-0.118c0.091,-0.037 0.198,-0.076 0.323,-0.123c0.125,-0.047 0.273,-0.098 0.443,-0.157c0.169,-0.056 0.39,-0.13 0.663,-0.224l1.395,-0.448l0.68,-0.173c0.046,-0.047 0.102,-0.076 0.171,-0.087c0.067,-0.011 0.158,-0.039 0.272,-0.085l0.17,-0.244c0.408,-0.645 0.783,-1.225 1.123,-1.744c0.339,-0.52 0.68,-1.009 1.021,-1.469c0.339,-0.461 0.691,-0.909 1.055,-1.35c0.361,-0.435 0.77,-0.908 1.224,-1.415c0.408,-0.438 0.873,-0.917 1.395,-1.434c0.522,-0.52 1.066,-1.043 1.634,-1.574c0.566,-0.528 1.127,-1.037 1.683,-1.519c0.556,-0.485 1.06,-0.911 1.514,-1.279l1.667,-1.245c0.091,-0.09 0.159,-0.139 0.204,-0.139l0.035,0l0.307,0.243Zm12.384,0.759l0.476,0c0.681,0 1.265,-0.12 1.752,-0.362c0.487,-0.241 0.732,-0.558 0.732,-0.952c0,-1.311 -2.042,-1.969 -6.124,-1.969c-1.293,0 -2.626,0.064 -3.998,0.191c-1.373,0.127 -2.711,0.306 -4.015,0.535c-1.304,0.23 -2.542,0.502 -3.709,0.813c-1.169,0.312 -2.207,0.651 -3.113,1.019c-0.431,0.186 -0.885,0.41 -1.361,0.673c-0.476,0.266 -0.862,0.513 -1.156,0.744c-0.341,0.255 -0.511,0.474 -0.511,0.657c0,0.161 0.101,0.24 0.306,0.24l0.238,0c0.045,0 0.079,-0.004 0.102,-0.015c0.023,-0.012 0.068,-0.018 0.136,-0.018c-0.339,0.715 -0.691,1.071 -1.055,1.071c-0.182,0 -0.334,-0.075 -0.458,-0.224c-0.125,-0.15 -0.188,-0.317 -0.188,-0.501c0,-0.922 1.202,-1.913 3.606,-2.973c0.975,-0.437 2.054,-0.824 3.234,-1.156c1.178,-0.336 2.426,-0.617 3.741,-0.848c1.315,-0.23 2.672,-0.402 4.066,-0.517c1.396,-0.117 2.797,-0.174 4.203,-0.174c4.695,0 7.041,0.703 7.041,2.107c0,0.6 -0.334,1.089 -1.001,1.469c-0.67,0.381 -1.539,0.572 -2.604,0.572l-0.41,0l0.07,-0.382Z" style="fill:#1b4798;fill-rule:nonzero;"/><path d="M60.423,44.021l-0.342,0.309c-1.066,0.854 -2.013,1.626 -2.84,2.319c-0.828,0.689 -1.583,1.346 -2.263,1.969c-0.681,0.623 -1.304,1.238 -1.871,1.849c-0.567,0.61 -1.134,1.25 -1.701,1.916c-0.636,0.785 -1.175,1.518 -1.616,2.195c-0.443,0.682 -0.881,1.435 -1.31,2.264l0.441,-0.137c3.676,-1.084 6.936,-1.883 9.784,-2.403c2.845,-0.517 5.403,-0.788 7.672,-0.81l1.259,0c0.612,-0.072 0.918,0.081 0.918,0.448c0,0.115 -0.023,0.23 -0.068,0.346c-0.046,0.115 -0.102,0.253 -0.171,0.414c-0.861,-0.114 -1.628,-0.196 -2.295,-0.243c-0.67,-0.044 -1.334,-0.068 -1.991,-0.068c-3.561,0 -8.019,0.748 -13.372,2.248c-0.5,0.184 -0.952,0.326 -1.361,0.432c-0.408,0.101 -0.749,0.211 -1.021,0.326c-0.204,0.369 -0.392,0.809 -0.561,1.314c-0.171,0.508 -0.323,1.037 -0.46,1.59c-0.135,0.555 -0.243,1.106 -0.324,1.66c-0.078,0.553 -0.118,1.071 -0.118,1.555c0,1.359 0.204,2.598 0.612,3.715c0.408,1.119 0.998,2.074 1.77,2.869c0.771,0.794 1.695,1.404 2.773,1.833c1.078,0.425 2.285,0.638 3.623,0.638c2.905,0 5.819,-0.859 8.745,-2.575c2.927,-1.716 5.863,-4.281 8.812,-7.689l0.307,-0.346l0.339,0.414c-3.47,4.01 -6.861,7.024 -10.172,9.038c-3.312,2.015 -6.522,3.025 -9.63,3.025c-1.338,0 -2.557,-0.227 -3.657,-0.674c-1.101,-0.451 -2.041,-1.078 -2.825,-1.883c-0.782,-0.808 -1.383,-1.768 -1.803,-2.886c-0.419,-1.118 -0.629,-2.356 -0.629,-3.715c0,-1.29 0.153,-2.526 0.459,-3.701c0.306,-1.174 0.822,-2.453 1.549,-3.834l-4.118,1.346l0.137,-0.484c0.136,-0.044 0.249,-0.085 0.34,-0.118c0.091,-0.037 0.198,-0.076 0.323,-0.123c0.125,-0.047 0.273,-0.098 0.443,-0.157c0.169,-0.056 0.39,-0.13 0.663,-0.224l1.395,-0.448l0.68,-0.173c0.046,-0.047 0.102,-0.076 0.171,-0.087c0.067,-0.011 0.158,-0.039 0.272,-0.085l0.17,-0.244c0.408,-0.645 0.783,-1.225 1.123,-1.744c0.339,-0.52 0.68,-1.009 1.021,-1.469c0.339,-0.461 0.691,-0.909 1.055,-1.35c0.361,-0.435 0.77,-0.908 1.224,-1.415c0.408,-0.438 0.873,-0.917 1.395,-1.434c0.522,-0.52 1.066,-1.043 1.634,-1.574c0.566,-0.528 1.127,-1.037 1.683,-1.519c0.556,-0.485 1.06,-0.911 1.514,-1.279l1.667,-1.245c0.091,-0.09 0.159,-0.139 0.204,-0.139l0.035,0l0.307,0.243Zm12.384,0.759l0.476,0c0.681,0 1.265,-0.12 1.752,-0.362c0.487,-0.241 0.732,-0.558 0.732,-0.952c0,-1.311 -2.042,-1.969 -6.124,-1.969c-1.293,0 -2.626,0.064 -3.998,0.191c-1.373,0.127 -2.711,0.306 -4.015,0.535c-1.304,0.23 -2.542,0.502 -3.709,0.813c-1.169,0.312 -2.207,0.651 -3.113,1.019c-0.431,0.186 -0.885,0.41 -1.361,0.673c-0.476,0.266 -0.862,0.513 -1.156,0.744c-0.341,0.255 -0.511,0.474 -0.511,0.657c0,0.161 0.101,0.24 0.306,0.24l0.238,0c0.045,0 0.079,-0.004 0.102,-0.015c0.023,-0.012 0.068,-0.018 0.136,-0.018c-0.339,0.715 -0.691,1.071 -1.055,1.071c-0.182,0 -0.334,-0.075 -0.458,-0.224c-0.125,-0.15 -0.188,-0.317 -0.188,-0.501c0,-0.922 1.202,-1.913 3.606,-2.973c0.975,-0.437 2.054,-0.824 3.234,-1.156c1.178,-0.336 2.426,-0.617 3.741,-0.848c1.315,-0.23 2.672,-0.402 4.066,-0.517c1.396,-0.117 2.797,-0.174 4.203,-0.174c4.695,0 7.041,0.703 7.041,2.107c0,0.6 -0.334,1.089 -1.001,1.469c-0.67,0.381 -1.539,0.572 -2.604,0.572l-0.41,0l0.07,-0.382Z" style="fill:none;stroke:#1b4798;stroke-width:0.35px;"/><path d="M76.073,59.987c-0.386,0.624 -0.71,1.158 -0.97,1.609c-0.261,0.449 -0.505,0.877 -0.731,1.278c-0.227,0.404 -0.438,0.802 -0.63,1.194c-0.193,0.391 -0.403,0.841 -0.629,1.346c-0.227,0.507 -0.409,0.93 -0.544,1.262c-0.136,0.336 -0.205,0.572 -0.205,0.709c0,0.162 0.069,0.241 0.205,0.241c0.135,0 0.464,-0.217 0.987,-0.655c0.522,-0.437 0.952,-0.79 1.293,-1.056c0.34,-0.262 0.629,-0.482 0.866,-0.657c0.24,-0.172 0.466,-0.328 0.681,-0.465c0.216,-0.137 0.47,-0.299 0.767,-0.482c1.383,-0.969 2.613,-1.719 3.69,-2.247c1.077,-0.53 1.856,-0.796 2.333,-0.796c0.588,0 0.883,0.345 0.883,1.037c0,0.184 -0.011,0.414 -0.034,0.691c-0.023,0.276 -0.125,0.748 -0.306,1.416c-0.183,0.739 -0.312,1.366 -0.392,1.883c-0.08,0.52 -0.118,0.94 -0.118,1.262c0,0.969 0.395,1.451 1.19,1.451c1.179,0 3.187,-1.451 6.023,-4.352c0.408,-0.416 0.793,-0.824 1.156,-1.228c0.363,-0.403 0.704,-0.778 1.021,-1.123c0.182,-0.186 0.288,-0.293 0.323,-0.328c0.034,-0.035 0.086,-0.053 0.153,-0.053c0.138,0 0.205,0.058 0.205,0.173c0,0.093 -0.046,0.189 -0.136,0.293c-0.092,0.104 -0.296,0.34 -0.612,0.709l-1.531,1.626c-1.702,1.842 -3.154,3.186 -4.356,4.025c-1.202,0.843 -2.279,1.262 -3.233,1.262c-1.156,0 -1.735,-0.681 -1.735,-2.039c0,-0.207 0.005,-0.421 0.017,-0.64c0.012,-0.219 0.046,-0.473 0.103,-0.76c0.056,-0.287 0.13,-0.645 0.221,-1.071c0.09,-0.427 0.204,-0.952 0.339,-1.572c0.046,-0.161 0.086,-0.307 0.121,-0.432c0.034,-0.129 0.051,-0.259 0.051,-0.399c0,-0.46 -0.218,-0.69 -0.647,-0.69c-0.273,0 -0.596,0.08 -0.971,0.241c-0.374,0.161 -0.923,0.484 -1.649,0.969c-1.565,0.966 -2.983,1.946 -4.254,2.936c-1.27,0.992 -2.291,1.902 -3.061,2.732c-0.363,0.391 -0.608,0.638 -0.732,0.743c-0.125,0.103 -0.234,0.155 -0.323,0.155c-0.273,0 -0.409,-0.253 -0.409,-0.759c0,-0.418 0.114,-0.981 0.341,-1.695c0.226,-0.715 0.515,-1.48 0.867,-2.298c0.352,-0.818 0.754,-1.647 1.208,-2.489c0.453,-0.842 0.919,-1.619 1.395,-2.333c0.454,-0.253 1.043,-0.46 1.769,-0.624Z" style="fill:#1b4798;fill-rule:nonzero;"/><path d="M76.073,59.987c-0.386,0.624 -0.71,1.158 -0.97,1.609c-0.261,0.449 -0.505,0.877 -0.731,1.278c-0.227,0.404 -0.438,0.802 -0.63,1.194c-0.193,0.391 -0.403,0.841 -0.629,1.346c-0.227,0.507 -0.409,0.93 -0.544,1.262c-0.136,0.336 -0.205,0.572 -0.205,0.709c0,0.162 0.069,0.241 0.205,0.241c0.135,0 0.464,-0.217 0.987,-0.655c0.522,-0.437 0.952,-0.79 1.293,-1.056c0.34,-0.262 0.629,-0.482 0.866,-0.657c0.24,-0.172 0.466,-0.328 0.681,-0.465c0.216,-0.137 0.47,-0.299 0.767,-0.482c1.383,-0.969 2.613,-1.719 3.69,-2.247c1.077,-0.53 1.856,-0.796 2.333,-0.796c0.588,0 0.883,0.345 0.883,1.037c0,0.184 -0.011,0.414 -0.034,0.691c-0.023,0.276 -0.125,0.748 -0.306,1.416c-0.183,0.739 -0.312,1.366 -0.392,1.883c-0.08,0.52 -0.118,0.94 -0.118,1.262c0,0.969 0.395,1.451 1.19,1.451c1.179,0 3.187,-1.451 6.023,-4.352c0.408,-0.416 0.793,-0.824 1.156,-1.228c0.363,-0.403 0.704,-0.778 1.021,-1.123c0.182,-0.186 0.288,-0.293 0.323,-0.328c0.034,-0.035 0.086,-0.053 0.153,-0.053c0.138,0 0.205,0.058 0.205,0.173c0,0.093 -0.046,0.189 -0.136,0.293c-0.092,0.104 -0.296,0.34 -0.612,0.709l-1.531,1.626c-1.702,1.842 -3.154,3.186 -4.356,4.025c-1.202,0.843 -2.279,1.262 -3.233,1.262c-1.156,0 -1.735,-0.681 -1.735,-2.039c0,-0.207 0.005,-0.421 0.017,-0.64c0.012,-0.219 0.046,-0.473 0.103,-0.76c0.056,-0.287 0.13,-0.645 0.221,-1.071c0.09,-0.427 0.204,-0.952 0.339,-1.572c0.046,-0.161 0.086,-0.307 0.121,-0.432c0.034,-0.129 0.051,-0.259 0.051,-0.399c0,-0.46 -0.218,-0.69 -0.647,-0.69c-0.273,0 -0.596,0.08 -0.971,0.241c-0.374,0.161 -0.923,0.484 -1.649,0.969c-1.565,0.966 -2.983,1.946 -4.254,2.936c-1.27,0.992 -2.291,1.902 -3.061,2.732c-0.363,0.391 -0.608,0.638 -0.732,0.743c-0.125,0.103 -0.234,0.155 -0.323,0.155c-0.273,0 -0.409,-0.253 -0.409,-0.759c0,-0.418 0.114,-0.981 0.341,-1.695c0.226,-0.715 0.515,-1.48 0.867,-2.298c0.352,-0.818 0.754,-1.647 1.208,-2.489c0.453,-0.842 0.919,-1.619 1.395,-2.333c0.454,-0.253 1.043,-0.46 1.769,-0.624Z" style="fill:none;stroke:#1b4798;stroke-width:0.35px;"/><path d="M100.707,58.295c-0.046,0.852 -0.131,1.699 -0.255,2.54c-0.125,0.843 -0.312,1.705 -0.562,2.593c-0.25,0.889 -0.562,1.825 -0.936,2.816c-0.374,0.991 -0.823,2.052 -1.345,3.18l-0.306,0.656c0.522,-0.297 1.158,-0.749 1.907,-1.347c0.747,-0.598 1.519,-1.266 2.313,-2.004c0.794,-0.737 1.566,-1.498 2.314,-2.283c0.748,-0.782 1.383,-1.508 1.906,-2.176c0.112,-0.184 0.192,-0.299 0.237,-0.346c0.045,-0.046 0.113,-0.068 0.205,-0.068c0.158,0 0.238,0.08 0.238,0.241c0,0.093 -0.097,0.255 -0.289,0.484c-0.194,0.23 -0.574,0.658 -1.14,1.279c-0.659,0.736 -1.282,1.406 -1.872,2.004c-0.591,0.601 -1.173,1.158 -1.752,1.677c-0.578,0.518 -1.163,1.013 -1.752,1.487c-0.591,0.47 -1.215,0.938 -1.872,1.398c-0.068,0.047 -0.186,0.121 -0.358,0.225c-0.17,0.105 -0.368,0.246 -0.595,0.431c-0.43,0.807 -0.845,1.545 -1.242,2.213c-0.396,0.668 -0.805,1.303 -1.226,1.902c-0.419,0.597 -0.855,1.18 -1.308,1.746c-0.455,0.563 -0.953,1.144 -1.497,1.744c-1.588,1.798 -3.058,3.156 -4.412,4.078c-1.352,0.923 -2.57,1.384 -3.652,1.384c-1.111,0 -1.667,-0.532 -1.667,-1.592c0,-1.035 0.544,-2.141 1.633,-3.317c0.564,-0.622 1.371,-1.308 2.419,-2.056c1.048,-0.75 2.499,-1.664 4.352,-2.748c0.567,-0.322 1.1,-0.641 1.599,-0.95c0.499,-0.312 1.032,-0.629 1.599,-0.952c0.567,-0.323 0.987,-0.564 1.258,-0.725c0.273,-0.162 0.567,-0.334 0.886,-0.518l0.374,-0.277c0.498,-0.969 0.964,-1.981 1.394,-3.041c0.432,-1.061 0.84,-2.246 1.226,-3.561l-0.239,0.416c-1.156,1.706 -2.359,3.041 -3.606,4.008c-1.248,0.969 -2.382,1.453 -3.403,1.453c-0.658,0 -1.168,-0.203 -1.531,-0.607c-0.362,-0.4 -0.544,-0.938 -0.544,-1.606c0,-0.437 0.08,-0.91 0.238,-1.416c0.159,-0.507 0.38,-1.021 0.663,-1.539c0.284,-0.519 0.63,-1.031 1.039,-1.538c0.408,-0.506 0.861,-0.979 1.36,-1.416c0.817,-0.784 1.657,-1.383 2.518,-1.798c0.862,-0.416 1.656,-0.623 2.382,-0.623c0.362,0 0.681,0.03 0.952,0.087c0.273,0.058 0.59,0.181 0.954,0.365c0.09,-0.324 0.146,-0.606 0.169,-0.849c0.024,-0.241 0.056,-0.571 0.102,-0.985l0,-0.277c0.046,-0.022 0.103,-0.044 0.171,-0.07c0.068,-0.021 0.136,-0.034 0.203,-0.034c0.25,0 0.5,0.104 0.75,0.312Zm-5.206,13.721c-0.137,0.07 -0.25,0.121 -0.341,0.156c-0.091,0.033 -0.193,0.088 -0.306,0.156c-0.114,0.069 -0.261,0.155 -0.442,0.26c-0.182,0.102 -0.443,0.258 -0.783,0.465l-1.394,0.83c-1.633,0.969 -3.006,1.815 -4.118,2.54c-1.111,0.726 -2.008,1.388 -2.688,1.988c-0.68,0.599 -1.168,1.152 -1.463,1.658c-0.294,0.507 -0.442,1.013 -0.442,1.521c0,0.393 0.131,0.727 0.392,1.002c0.26,0.277 0.606,0.416 1.037,0.416c0.59,0 1.394,-0.369 2.416,-1.107c1.02,-0.737 2.143,-1.774 3.368,-3.112c0.952,-1.013 1.804,-2.06 2.552,-3.143c0.748,-1.084 1.486,-2.294 2.212,-3.63Zm3.641,-10.611c-0.569,-0.644 -1.272,-0.967 -2.11,-0.967c-0.726,0 -1.463,0.203 -2.212,0.605c-0.748,0.403 -1.429,0.92 -2.042,1.555c-0.612,0.635 -1.117,1.338 -1.513,2.107c-0.398,0.774 -0.597,1.528 -0.597,2.266c0,0.576 0.155,1.03 0.461,1.364c0.306,0.334 0.708,0.501 1.207,0.501c0.612,0 1.264,-0.217 1.956,-0.657c0.692,-0.436 1.361,-1.007 2.008,-1.71c0.646,-0.702 1.224,-1.498 1.735,-2.385c0.511,-0.886 0.88,-1.779 1.107,-2.679Z" style="fill:#1b4798;fill-rule:nonzero;"/><path d="M100.707,58.295c-0.046,0.852 -0.131,1.699 -0.255,2.54c-0.125,0.843 -0.312,1.705 -0.562,2.593c-0.25,0.889 -0.562,1.825 -0.936,2.816c-0.374,0.991 -0.823,2.052 -1.345,3.18l-0.306,0.656c0.522,-0.297 1.158,-0.749 1.907,-1.347c0.747,-0.598 1.519,-1.266 2.313,-2.004c0.794,-0.737 1.566,-1.498 2.314,-2.283c0.748,-0.782 1.383,-1.508 1.906,-2.176c0.112,-0.184 0.192,-0.299 0.237,-0.346c0.045,-0.046 0.113,-0.068 0.205,-0.068c0.158,0 0.238,0.08 0.238,0.241c0,0.093 -0.097,0.255 -0.289,0.484c-0.194,0.23 -0.574,0.658 -1.14,1.279c-0.659,0.736 -1.282,1.406 -1.872,2.004c-0.591,0.601 -1.173,1.158 -1.752,1.677c-0.578,0.518 -1.163,1.013 -1.752,1.487c-0.591,0.47 -1.215,0.938 -1.872,1.398c-0.068,0.047 -0.186,0.121 -0.358,0.225c-0.17,0.105 -0.368,0.246 -0.595,0.431c-0.43,0.807 -0.845,1.545 -1.242,2.213c-0.396,0.668 -0.805,1.303 -1.226,1.902c-0.419,0.597 -0.855,1.18 -1.308,1.746c-0.455,0.563 -0.953,1.144 -1.497,1.744c-1.588,1.798 -3.058,3.156 -4.412,4.078c-1.352,0.923 -2.57,1.384 -3.652,1.384c-1.111,0 -1.667,-0.532 -1.667,-1.592c0,-1.035 0.544,-2.141 1.633,-3.317c0.564,-0.622 1.371,-1.308 2.419,-2.056c1.048,-0.75 2.499,-1.664 4.352,-2.748c0.567,-0.322 1.1,-0.641 1.599,-0.95c0.499,-0.312 1.032,-0.629 1.599,-0.952c0.567,-0.323 0.987,-0.564 1.258,-0.725c0.273,-0.162 0.567,-0.334 0.886,-0.518l0.374,-0.277c0.498,-0.969 0.964,-1.981 1.394,-3.041c0.432,-1.061 0.84,-2.246 1.226,-3.561l-0.239,0.416c-1.156,1.706 -2.359,3.041 -3.606,4.008c-1.248,0.969 -2.382,1.453 -3.403,1.453c-0.658,0 -1.168,-0.203 -1.531,-0.607c-0.362,-0.4 -0.544,-0.938 -0.544,-1.606c0,-0.437 0.08,-0.91 0.238,-1.416c0.159,-0.507 0.38,-1.021 0.663,-1.539c0.284,-0.519 0.63,-1.031 1.039,-1.538c0.408,-0.506 0.861,-0.979 1.36,-1.416c0.817,-0.784 1.657,-1.383 2.518,-1.798c0.862,-0.416 1.656,-0.623 2.382,-0.623c0.362,0 0.681,0.03 0.952,0.087c0.273,0.058 0.59,0.181 0.954,0.365c0.09,-0.324 0.146,-0.606 0.169,-0.849c0.024,-0.241 0.056,-0.571 0.102,-0.985l0,-0.277c0.046,-0.022 0.103,-0.044 0.171,-0.07c0.068,-0.021 0.136,-0.034 0.203,-0.034c0.25,0 0.5,0.104 0.75,0.312Zm-5.206,13.721c-0.137,0.07 -0.25,0.121 -0.341,0.156c-0.091,0.033 -0.193,0.088 -0.306,0.156c-0.114,0.069 -0.261,0.155 -0.442,0.26c-0.182,0.102 -0.443,0.258 -0.783,0.465l-1.394,0.83c-1.633,0.969 -3.006,1.815 -4.118,2.54c-1.111,0.726 -2.008,1.388 -2.688,1.988c-0.68,0.599 -1.168,1.152 -1.463,1.658c-0.294,0.507 -0.442,1.013 -0.442,1.521c0,0.393 0.131,0.727 0.392,1.002c0.26,0.277 0.606,0.416 1.037,0.416c0.59,0 1.394,-0.369 2.416,-1.107c1.02,-0.737 2.143,-1.774 3.368,-3.112c0.952,-1.013 1.804,-2.06 2.552,-3.143c0.748,-1.084 1.486,-2.294 2.212,-3.63Zm3.641,-10.611c-0.569,-0.644 -1.272,-0.967 -2.11,-0.967c-0.726,0 -1.463,0.203 -2.212,0.605c-0.748,0.403 -1.429,0.92 -2.042,1.555c-0.612,0.635 -1.117,1.338 -1.513,2.107c-0.398,0.774 -0.597,1.528 -0.597,2.266c0,0.576 0.155,1.03 0.461,1.364c0.306,0.334 0.708,0.501 1.207,0.501c0.612,0 1.264,-0.217 1.956,-0.657c0.692,-0.436 1.361,-1.007 2.008,-1.71c0.646,-0.702 1.224,-1.498 1.735,-2.385c0.511,-0.886 0.88,-1.779 1.107,-2.679Z" style="fill:none;stroke:#1b4798;stroke-width:0.35px;"/><path d="M108.022,60.75c-1.156,1.819 -1.968,3.293 -2.433,4.423c-0.464,1.13 -0.697,2.109 -0.697,2.938c0,0.876 0.34,1.313 1.02,1.313c0.409,0 0.937,-0.161 1.583,-0.484c0.645,-0.321 1.361,-0.778 2.144,-1.365c0.782,-0.586 1.614,-1.289 2.499,-2.106c0.885,-0.818 1.771,-1.735 2.654,-2.75c0.295,-0.323 0.471,-0.523 0.528,-0.605c0.056,-0.08 0.141,-0.121 0.256,-0.121c0.136,0 0.205,0.093 0.205,0.277c0,0.023 -0.006,0.046 -0.019,0.068c-0.011,0.024 -0.057,0.082 -0.136,0.174c-0.079,0.092 -0.204,0.231 -0.373,0.414c-0.17,0.186 -0.404,0.449 -0.699,0.795c-2.063,2.19 -3.928,3.877 -5.597,5.063c-1.667,1.187 -3,1.781 -3.998,1.781c-0.566,0 -0.992,-0.174 -1.275,-0.52c-0.285,-0.344 -0.426,-0.818 -0.426,-1.415c0,-1.475 0.659,-3.377 1.974,-5.704c0.544,-0.99 0.999,-1.716 1.361,-2.176c0.386,-0.117 0.68,-0.197 0.885,-0.244c0.205,-0.046 0.452,-0.079 0.748,-0.103l-0.204,0.347Zm4.05,-5.947l-0.783,0.553c-0.318,0.277 -0.687,0.599 -1.107,0.969c-0.42,0.369 -0.823,0.738 -1.207,1.105l-0.102,0.105c-0.295,-0.023 -0.444,-0.138 -0.444,-0.345c0,-0.115 0.104,-0.323 0.308,-0.622c0.204,-0.301 0.465,-0.613 0.783,-0.935c0.748,-0.83 1.416,-1.244 2.006,-1.244c0.092,0 0.192,0.014 0.306,0.035c0.113,0.024 0.26,0.08 0.443,0.173l-0.203,0.206Z" style="fill:#1b4798;fill-rule:nonzero;"/><path d="M108.022,60.75c-1.156,1.819 -1.968,3.293 -2.433,4.423c-0.464,1.13 -0.697,2.109 -0.697,2.938c0,0.876 0.34,1.313 1.02,1.313c0.409,0 0.937,-0.161 1.583,-0.484c0.645,-0.321 1.361,-0.778 2.144,-1.365c0.782,-0.586 1.614,-1.289 2.499,-2.106c0.885,-0.818 1.771,-1.735 2.654,-2.75c0.295,-0.323 0.471,-0.523 0.528,-0.605c0.056,-0.08 0.141,-0.121 0.256,-0.121c0.136,0 0.205,0.093 0.205,0.277c0,0.023 -0.006,0.046 -0.019,0.068c-0.011,0.024 -0.057,0.082 -0.136,0.174c-0.079,0.092 -0.204,0.231 -0.373,0.414c-0.17,0.186 -0.404,0.449 -0.699,0.795c-2.063,2.19 -3.928,3.877 -5.597,5.063c-1.667,1.187 -3,1.781 -3.998,1.781c-0.566,0 -0.992,-0.174 -1.275,-0.52c-0.285,-0.344 -0.426,-0.818 -0.426,-1.415c0,-1.475 0.659,-3.377 1.974,-5.704c0.544,-0.99 0.999,-1.716 1.361,-2.176c0.386,-0.117 0.68,-0.197 0.885,-0.244c0.205,-0.046 0.452,-0.079 0.748,-0.103l-0.204,0.347Zm4.05,-5.947l-0.783,0.553c-0.318,0.277 -0.687,0.599 -1.107,0.969c-0.42,0.369 -0.823,0.738 -1.207,1.105l-0.102,0.105c-0.295,-0.023 -0.444,-0.138 -0.444,-0.345c0,-0.115 0.104,-0.323 0.308,-0.622c0.204,-0.301 0.465,-0.613 0.783,-0.935c0.748,-0.83 1.416,-1.244 2.006,-1.244c0.092,0 0.192,0.014 0.306,0.035c0.113,0.024 0.26,0.08 0.443,0.173l-0.203,0.206Z" style="fill:none;stroke:#1b4798;stroke-width:0.35px;"/><path d="M117.991,59.987c-0.387,0.624 -0.709,1.158 -0.969,1.609c-0.262,0.449 -0.506,0.877 -0.733,1.278c-0.226,0.404 -0.438,0.802 -0.629,1.194c-0.193,0.391 -0.403,0.841 -0.629,1.346c-0.226,0.507 -0.408,0.93 -0.546,1.262c-0.135,0.336 -0.204,0.572 -0.204,0.709c0,0.162 0.069,0.241 0.204,0.241c0.138,0 0.466,-0.217 0.99,-0.655c0.521,-0.437 0.951,-0.79 1.292,-1.056c0.339,-0.262 0.628,-0.482 0.867,-0.657c0.238,-0.172 0.464,-0.328 0.68,-0.465c0.215,-0.137 0.471,-0.299 0.766,-0.482c1.384,-0.969 2.614,-1.719 3.692,-2.247c1.076,-0.53 1.853,-0.796 2.331,-0.796c0.588,0 0.885,0.345 0.885,1.037c0,0.184 -0.013,0.414 -0.036,0.691c-0.022,0.276 -0.124,0.748 -0.306,1.416c-0.182,0.739 -0.312,1.366 -0.391,1.883c-0.08,0.52 -0.119,0.94 -0.119,1.262c0,0.969 0.397,1.451 1.191,1.451c1.178,0 3.187,-1.451 6.021,-4.352c0.41,-0.416 0.795,-0.824 1.158,-1.228c0.364,-0.403 0.703,-0.778 1.02,-1.123c0.182,-0.186 0.29,-0.293 0.323,-0.328c0.036,-0.035 0.087,-0.053 0.154,-0.053c0.138,0 0.205,0.058 0.205,0.173c0,0.093 -0.047,0.189 -0.136,0.293c-0.092,0.104 -0.295,0.34 -0.613,0.709l-1.532,1.626c-1.699,1.842 -3.153,3.186 -4.355,4.025c-1.201,0.843 -2.278,1.262 -3.232,1.262c-1.156,0 -1.735,-0.681 -1.735,-2.039c0,-0.207 0.006,-0.421 0.017,-0.64c0.011,-0.219 0.045,-0.473 0.103,-0.76c0.055,-0.287 0.129,-0.645 0.22,-1.071c0.091,-0.427 0.206,-0.952 0.341,-1.572c0.045,-0.161 0.085,-0.307 0.119,-0.432c0.033,-0.129 0.052,-0.259 0.052,-0.399c0,-0.46 -0.217,-0.69 -0.648,-0.69c-0.272,0 -0.596,0.08 -0.969,0.241c-0.374,0.161 -0.924,0.484 -1.651,0.969c-1.565,0.966 -2.983,1.946 -4.252,2.936c-1.271,0.992 -2.292,1.902 -3.064,2.732c-0.362,0.391 -0.606,0.638 -0.73,0.743c-0.125,0.103 -0.234,0.155 -0.324,0.155c-0.272,0 -0.408,-0.253 -0.408,-0.759c0,-0.418 0.113,-0.981 0.339,-1.695c0.227,-0.715 0.517,-1.48 0.869,-2.298c0.353,-0.818 0.754,-1.647 1.208,-2.489c0.454,-0.842 0.919,-1.619 1.395,-2.333c0.453,-0.253 1.043,-0.46 1.769,-0.624Z" style="fill:#1b4798;fill-rule:nonzero;"/><path d="M117.991,59.987c-0.387,0.624 -0.709,1.158 -0.969,1.609c-0.262,0.449 -0.506,0.877 -0.733,1.278c-0.226,0.404 -0.438,0.802 -0.629,1.194c-0.193,0.391 -0.403,0.841 -0.629,1.346c-0.226,0.507 -0.408,0.93 -0.546,1.262c-0.135,0.336 -0.204,0.572 -0.204,0.709c0,0.162 0.069,0.241 0.204,0.241c0.138,0 0.466,-0.217 0.99,-0.655c0.521,-0.437 0.951,-0.79 1.292,-1.056c0.339,-0.262 0.628,-0.482 0.867,-0.657c0.238,-0.172 0.464,-0.328 0.68,-0.465c0.215,-0.137 0.471,-0.299 0.766,-0.482c1.384,-0.969 2.614,-1.719 3.692,-2.247c1.076,-0.53 1.853,-0.796 2.331,-0.796c0.588,0 0.885,0.345 0.885,1.037c0,0.184 -0.013,0.414 -0.036,0.691c-0.022,0.276 -0.124,0.748 -0.306,1.416c-0.182,0.739 -0.312,1.366 -0.391,1.883c-0.08,0.52 -0.119,0.94 -0.119,1.262c0,0.969 0.397,1.451 1.191,1.451c1.178,0 3.187,-1.451 6.021,-4.352c0.41,-0.416 0.795,-0.824 1.158,-1.228c0.364,-0.403 0.703,-0.778 1.02,-1.123c0.182,-0.186 0.29,-0.293 0.323,-0.328c0.036,-0.035 0.087,-0.053 0.154,-0.053c0.138,0 0.205,0.058 0.205,0.173c0,0.093 -0.047,0.189 -0.136,0.293c-0.092,0.104 -0.295,0.34 -0.613,0.709l-1.532,1.626c-1.699,1.842 -3.153,3.186 -4.355,4.025c-1.201,0.843 -2.278,1.262 -3.232,1.262c-1.156,0 -1.735,-0.681 -1.735,-2.039c0,-0.207 0.006,-0.421 0.017,-0.64c0.011,-0.219 0.045,-0.473 0.103,-0.76c0.055,-0.287 0.129,-0.645 0.22,-1.071c0.091,-0.427 0.206,-0.952 0.341,-1.572c0.045,-0.161 0.085,-0.307 0.119,-0.432c0.033,-0.129 0.052,-0.259 0.052,-0.399c0,-0.46 -0.217,-0.69 -0.648,-0.69c-0.272,0 -0.596,0.08 -0.969,0.241c-0.374,0.161 -0.924,0.484 -1.651,0.969c-1.565,0.966 -2.983,1.946 -4.252,2.936c-1.271,0.992 -2.292,1.902 -3.064,2.732c-0.362,0.391 -0.606,0.638 -0.73,0.743c-0.125,0.103 -0.234,0.155 -0.324,0.155c-0.272,0 -0.408,-0.253 -0.408,-0.759c0,-0.418 0.113,-0.981 0.339,-1.695c0.227,-0.715 0.517,-1.48 0.869,-2.298c0.353,-0.818 0.754,-1.647 1.208,-2.489c0.454,-0.842 0.919,-1.619 1.395,-2.333c0.453,-0.253 1.043,-0.46 1.769,-0.624Z" style="fill:none;stroke:#1b4798;stroke-width:0.35px;"/><path d="M133.642,65.173c-0.136,0.46 -0.232,0.814 -0.29,1.054c-0.056,0.242 -0.085,0.525 -0.085,0.846c0,0.83 0.255,1.516 0.766,2.056c0.51,0.543 1.161,0.813 1.956,0.813c1.112,0 2.404,-0.539 3.879,-1.623c1.474,-1.084 3.255,-2.823 5.342,-5.22l0.613,-0.657c0.09,-0.09 0.157,-0.172 0.204,-0.24c0.044,-0.07 0.091,-0.118 0.136,-0.14c0.159,-0.159 0.273,-0.241 0.339,-0.241c0.137,0 0.206,0.082 0.206,0.241c0,0.07 -0.047,0.161 -0.138,0.276c-0.09,0.117 -0.328,0.392 -0.713,0.83c-0.727,0.807 -1.367,1.51 -1.923,2.11c-0.557,0.599 -1.066,1.133 -1.531,1.606c-0.465,0.472 -0.907,0.887 -1.328,1.245c-0.418,0.356 -0.867,0.707 -1.342,1.052c-0.907,0.692 -1.776,1.233 -2.603,1.626c-0.83,0.391 -1.549,0.586 -2.162,0.586c-0.974,0 -1.747,-0.311 -2.314,-0.932c-0.568,-0.623 -0.849,-1.418 -0.849,-2.385c0,-1.197 0.395,-2.464 1.191,-3.802c0.43,-0.713 0.922,-1.4 1.479,-2.057c0.555,-0.656 1.134,-1.238 1.735,-1.746c0.602,-0.506 1.202,-0.902 1.804,-1.19c0.601,-0.288 1.162,-0.433 1.684,-0.433c1.043,0 1.566,0.438 1.566,1.313c0,0.6 -0.204,1.198 -0.613,1.798c-0.408,0.6 -0.935,1.14 -1.582,1.624c-0.646,0.483 -1.361,0.876 -2.143,1.175c-0.783,0.299 -1.55,0.449 -2.298,0.449l-0.443,0c-0.112,0 -0.295,-0.011 -0.543,-0.034Zm0.17,-0.517c0.204,0.044 0.358,0.072 0.459,0.084c0.103,0.012 0.244,0.018 0.425,0.018c0.636,0 1.282,-0.127 1.94,-0.381c0.657,-0.254 1.253,-0.575 1.787,-0.966c0.532,-0.391 0.969,-0.836 1.31,-1.333c0.339,-0.494 0.51,-0.972 0.51,-1.432c0,-0.668 -0.388,-1.003 -1.158,-1.003c-0.498,0 -1.071,0.195 -1.718,0.588c-0.645,0.39 -1.299,0.979 -1.955,1.762c-0.318,0.392 -0.585,0.767 -0.8,1.125c-0.216,0.356 -0.484,0.87 -0.8,1.538Z" style="fill:#1b4798;fill-rule:nonzero;"/><path d="M133.642,65.173c-0.136,0.46 -0.232,0.814 -0.29,1.054c-0.056,0.242 -0.085,0.525 -0.085,0.846c0,0.83 0.255,1.516 0.766,2.056c0.51,0.543 1.161,0.813 1.956,0.813c1.112,0 2.404,-0.539 3.879,-1.623c1.474,-1.084 3.255,-2.823 5.342,-5.22l0.613,-0.657c0.09,-0.09 0.157,-0.172 0.204,-0.24c0.044,-0.07 0.091,-0.118 0.136,-0.14c0.159,-0.159 0.273,-0.241 0.339,-0.241c0.137,0 0.206,0.082 0.206,0.241c0,0.07 -0.047,0.161 -0.138,0.276c-0.09,0.117 -0.328,0.392 -0.713,0.83c-0.727,0.807 -1.367,1.51 -1.923,2.11c-0.557,0.599 -1.066,1.133 -1.531,1.606c-0.465,0.472 -0.907,0.887 -1.328,1.245c-0.418,0.356 -0.867,0.707 -1.342,1.052c-0.907,0.692 -1.776,1.233 -2.603,1.626c-0.83,0.391 -1.549,0.586 -2.162,0.586c-0.974,0 -1.747,-0.311 -2.314,-0.932c-0.568,-0.623 -0.849,-1.418 -0.849,-2.385c0,-1.197 0.395,-2.464 1.191,-3.802c0.43,-0.713 0.922,-1.4 1.479,-2.057c0.555,-0.656 1.134,-1.238 1.735,-1.746c0.602,-0.506 1.202,-0.902 1.804,-1.19c0.601,-0.288 1.162,-0.433 1.684,-0.433c1.043,0 1.566,0.438 1.566,1.313c0,0.6 -0.204,1.198 -0.613,1.798c-0.408,0.6 -0.935,1.14 -1.582,1.624c-0.646,0.483 -1.361,0.876 -2.143,1.175c-0.783,0.299 -1.55,0.449 -2.298,0.449l-0.443,0c-0.112,0 -0.295,-0.011 -0.543,-0.034Zm0.17,-0.517c0.204,0.044 0.358,0.072 0.459,0.084c0.103,0.012 0.244,0.018 0.425,0.018c0.636,0 1.282,-0.127 1.94,-0.381c0.657,-0.254 1.253,-0.575 1.787,-0.966c0.532,-0.391 0.969,-0.836 1.31,-1.333c0.339,-0.494 0.51,-0.972 0.51,-1.432c0,-0.668 -0.388,-1.003 -1.158,-1.003c-0.498,0 -1.071,0.195 -1.718,0.588c-0.645,0.39 -1.299,0.979 -1.955,1.762c-0.318,0.392 -0.585,0.767 -0.8,1.125c-0.216,0.356 -0.484,0.87 -0.8,1.538Z" style="fill:none;stroke:#1b4798;stroke-width:0.35px;"/><path d="M145.142,65.173c-0.136,0.46 -0.232,0.814 -0.29,1.054c-0.056,0.242 -0.085,0.525 -0.085,0.846c0,0.83 0.256,1.516 0.766,2.056c0.51,0.543 1.162,0.813 1.956,0.813c1.112,0 2.405,-0.539 3.879,-1.623c1.475,-1.084 3.255,-2.823 5.342,-5.22l0.613,-0.657c0.09,-0.09 0.157,-0.172 0.204,-0.24c0.044,-0.07 0.091,-0.118 0.136,-0.14c0.159,-0.159 0.272,-0.241 0.34,-0.241c0.136,0 0.205,0.082 0.205,0.241c0,0.07 -0.046,0.161 -0.138,0.276c-0.09,0.117 -0.328,0.392 -0.714,0.83c-0.725,0.807 -1.367,1.51 -1.922,2.11c-0.555,0.599 -1.066,1.133 -1.531,1.606c-0.465,0.472 -0.907,0.887 -1.326,1.245c-0.42,0.356 -0.869,0.707 -1.344,1.052c-0.907,0.692 -1.775,1.233 -2.604,1.626c-0.829,0.391 -1.547,0.586 -2.16,0.586c-0.975,0 -1.748,-0.311 -2.315,-0.932c-0.567,-0.623 -0.849,-1.418 -0.849,-2.385c0,-1.197 0.397,-2.464 1.191,-3.802c0.43,-0.713 0.922,-1.4 1.479,-2.057c0.555,-0.656 1.134,-1.238 1.735,-1.746c0.602,-0.506 1.203,-0.902 1.804,-1.19c0.601,-0.288 1.162,-0.433 1.684,-0.433c1.044,0 1.566,0.438 1.566,1.313c0,0.6 -0.205,1.198 -0.613,1.798c-0.409,0.6 -0.937,1.14 -1.582,1.624c-0.648,0.483 -1.361,0.876 -2.145,1.175c-0.781,0.299 -1.548,0.449 -2.295,0.449l-0.442,0c-0.114,0 -0.297,-0.011 -0.545,-0.034Zm0.171,-0.517c0.204,0.044 0.355,0.072 0.458,0.084c0.103,0.012 0.243,0.018 0.425,0.018c0.635,0 1.282,-0.127 1.94,-0.381c0.659,-0.254 1.253,-0.575 1.785,-0.966c0.534,-0.391 0.971,-0.836 1.312,-1.333c0.34,-0.494 0.509,-0.972 0.509,-1.432c0,-0.668 -0.386,-1.003 -1.157,-1.003c-0.498,0 -1.071,0.195 -1.718,0.588c-0.645,0.39 -1.299,0.979 -1.955,1.762c-0.319,0.392 -0.585,0.767 -0.8,1.125c-0.216,0.356 -0.484,0.87 -0.799,1.538Z" style="fill:#1b4798;fill-rule:nonzero;"/><path d="M145.142,65.173c-0.136,0.46 -0.232,0.814 -0.29,1.054c-0.056,0.242 -0.085,0.525 -0.085,0.846c0,0.83 0.256,1.516 0.766,2.056c0.51,0.543 1.162,0.813 1.956,0.813c1.112,0 2.405,-0.539 3.879,-1.623c1.475,-1.084 3.255,-2.823 5.342,-5.22l0.613,-0.657c0.09,-0.09 0.157,-0.172 0.204,-0.24c0.044,-0.07 0.091,-0.118 0.136,-0.14c0.159,-0.159 0.272,-0.241 0.34,-0.241c0.136,0 0.205,0.082 0.205,0.241c0,0.07 -0.046,0.161 -0.138,0.276c-0.09,0.117 -0.328,0.392 -0.714,0.83c-0.725,0.807 -1.367,1.51 -1.922,2.11c-0.555,0.599 -1.066,1.133 -1.531,1.606c-0.465,0.472 -0.907,0.887 -1.326,1.245c-0.42,0.356 -0.869,0.707 -1.344,1.052c-0.907,0.692 -1.775,1.233 -2.604,1.626c-0.829,0.391 -1.547,0.586 -2.16,0.586c-0.975,0 -1.748,-0.311 -2.315,-0.932c-0.567,-0.623 -0.849,-1.418 -0.849,-2.385c0,-1.197 0.397,-2.464 1.191,-3.802c0.43,-0.713 0.922,-1.4 1.479,-2.057c0.555,-0.656 1.134,-1.238 1.735,-1.746c0.602,-0.506 1.203,-0.902 1.804,-1.19c0.601,-0.288 1.162,-0.433 1.684,-0.433c1.044,0 1.566,0.438 1.566,1.313c0,0.6 -0.205,1.198 -0.613,1.798c-0.409,0.6 -0.937,1.14 -1.582,1.624c-0.648,0.483 -1.361,0.876 -2.145,1.175c-0.781,0.299 -1.548,0.449 -2.295,0.449l-0.442,0c-0.114,0 -0.297,-0.011 -0.545,-0.034Zm0.171,-0.517c0.204,0.044 0.355,0.072 0.458,0.084c0.103,0.012 0.243,0.018 0.425,0.018c0.635,0 1.282,-0.127 1.94,-0.381c0.659,-0.254 1.253,-0.575 1.785,-0.966c0.534,-0.391 0.971,-0.836 1.312,-1.333c0.34,-0.494 0.509,-0.972 0.509,-1.432c0,-0.668 -0.386,-1.003 -1.157,-1.003c-0.498,0 -1.071,0.195 -1.718,0.588c-0.645,0.39 -1.299,0.979 -1.955,1.762c-0.319,0.392 -0.585,0.767 -0.8,1.125c-0.216,0.356 -0.484,0.87 -0.799,1.538Z" style="fill:none;stroke:#1b4798;stroke-width:0.35px;"/><path d="M158.751,61.268c0.069,0.021 0.153,0.046 0.255,0.07c0.103,0.022 0.21,0.033 0.323,0.033c0.385,0 0.822,-0.068 1.311,-0.206c0.486,-0.139 0.924,-0.311 1.309,-0.519c0.273,-0.14 0.488,-0.243 0.647,-0.312c0.158,-0.068 0.278,-0.121 0.356,-0.156c0.08,-0.033 0.137,-0.057 0.172,-0.068c0.033,-0.012 0.084,-0.017 0.151,-0.017c0.41,0 0.612,0.184 0.612,0.553c0,0.159 -0.09,0.334 -0.27,0.519l-0.816,1.105c-0.773,0.922 -1.38,1.863 -1.821,2.816c-0.443,0.955 -0.663,1.77 -0.663,2.436c0,0.624 0.197,1.137 0.594,1.539c0.397,0.404 0.891,0.604 1.481,0.604c0.703,0 1.484,-0.262 2.347,-0.794c0.863,-0.531 1.974,-1.451 3.334,-2.764c0.567,-0.53 1.078,-1.032 1.531,-1.505c0.455,-0.469 0.932,-1.008 1.43,-1.606l0.68,-0.794l0.238,-0.243c0.046,-0.023 0.085,-0.048 0.12,-0.07c0.035,-0.021 0.063,-0.033 0.085,-0.033c0.135,0 0.204,0.068 0.204,0.208c0,0.068 -0.024,0.132 -0.069,0.188c-0.045,0.059 -0.181,0.225 -0.408,0.502c-1.248,1.407 -2.37,2.609 -3.367,3.611c-1,1.002 -1.912,1.82 -2.739,2.454c-0.828,0.634 -1.588,1.103 -2.281,1.4c-0.691,0.3 -1.355,0.45 -1.99,0.45c-0.816,0 -1.479,-0.259 -1.99,-0.777c-0.511,-0.52 -0.766,-1.194 -0.766,-2.023c0,-0.83 0.209,-1.716 0.629,-2.66c0.421,-0.947 1.118,-2.029 2.094,-3.25c0.158,-0.231 0.237,-0.369 0.237,-0.415c0,-0.092 -0.068,-0.139 -0.204,-0.139c-0.067,0 -0.284,0.047 -0.646,0.139c-0.523,0.184 -0.976,0.277 -1.361,0.277c-0.25,0 -0.601,-0.058 -1.055,-0.173l-0.035,0.069l-0.442,0.485c-0.295,0.367 -0.511,0.552 -0.645,0.552c-0.137,0 -0.205,-0.047 -0.205,-0.139l0.101,-0.206l0.238,-0.242l0.341,-0.45c0.046,-0.045 0.091,-0.098 0.137,-0.156c0.045,-0.056 0.101,-0.121 0.169,-0.19c-0.204,-0.367 -0.306,-0.679 -0.306,-0.933c0,-0.276 0.057,-0.559 0.17,-0.846c0.114,-0.287 0.262,-0.553 0.442,-0.796c0.182,-0.241 0.381,-0.443 0.596,-0.604c0.216,-0.16 0.427,-0.242 0.631,-0.242c0.384,0 0.576,0.23 0.576,0.691c0,0.275 -0.079,0.576 -0.237,0.899c-0.16,0.324 -0.465,0.783 -0.92,1.382c-0.045,0.023 -0.146,0.138 -0.305,0.346Z" style="fill:#1b4798;fill-rule:nonzero;"/><path d="M158.751,61.268c0.069,0.021 0.153,0.046 0.255,0.07c0.103,0.022 0.21,0.033 0.323,0.033c0.385,0 0.822,-0.068 1.311,-0.206c0.486,-0.139 0.924,-0.311 1.309,-0.519c0.273,-0.14 0.488,-0.243 0.647,-0.312c0.158,-0.068 0.278,-0.121 0.356,-0.156c0.08,-0.033 0.137,-0.057 0.172,-0.068c0.033,-0.012 0.084,-0.017 0.151,-0.017c0.41,0 0.612,0.184 0.612,0.553c0,0.159 -0.09,0.334 -0.27,0.519l-0.816,1.105c-0.773,0.922 -1.38,1.863 -1.821,2.816c-0.443,0.955 -0.663,1.77 -0.663,2.436c0,0.624 0.197,1.137 0.594,1.539c0.397,0.404 0.891,0.604 1.481,0.604c0.703,0 1.484,-0.262 2.347,-0.794c0.863,-0.531 1.974,-1.451 3.334,-2.764c0.567,-0.53 1.078,-1.032 1.531,-1.505c0.455,-0.469 0.932,-1.008 1.43,-1.606l0.68,-0.794l0.238,-0.243c0.046,-0.023 0.085,-0.048 0.12,-0.07c0.035,-0.021 0.063,-0.033 0.085,-0.033c0.135,0 0.204,0.068 0.204,0.208c0,0.068 -0.024,0.132 -0.069,0.188c-0.045,0.059 -0.181,0.225 -0.408,0.502c-1.248,1.407 -2.37,2.609 -3.367,3.611c-1,1.002 -1.912,1.82 -2.739,2.454c-0.828,0.634 -1.588,1.103 -2.281,1.4c-0.691,0.3 -1.355,0.45 -1.99,0.45c-0.816,0 -1.479,-0.259 -1.99,-0.777c-0.511,-0.52 -0.766,-1.194 -0.766,-2.023c0,-0.83 0.209,-1.716 0.629,-2.66c0.421,-0.947 1.118,-2.029 2.094,-3.25c0.158,-0.231 0.237,-0.369 0.237,-0.415c0,-0.092 -0.068,-0.139 -0.204,-0.139c-0.067,0 -0.284,0.047 -0.646,0.139c-0.523,0.184 -0.976,0.277 -1.361,0.277c-0.25,0 -0.601,-0.058 -1.055,-0.173l-0.035,0.069l-0.442,0.485c-0.295,0.367 -0.511,0.552 -0.645,0.552c-0.137,0 -0.205,-0.047 -0.205,-0.139l0.101,-0.206l0.238,-0.242l0.341,-0.45c0.046,-0.045 0.091,-0.098 0.137,-0.156c0.045,-0.056 0.101,-0.121 0.169,-0.19c-0.204,-0.367 -0.306,-0.679 -0.306,-0.933c0,-0.276 0.057,-0.559 0.17,-0.846c0.114,-0.287 0.262,-0.553 0.442,-0.796c0.182,-0.241 0.381,-0.443 0.596,-0.604c0.216,-0.16 0.427,-0.242 0.631,-0.242c0.384,0 0.576,0.23 0.576,0.691c0,0.275 -0.079,0.576 -0.237,0.899c-0.16,0.324 -0.465,0.783 -0.92,1.382c-0.045,0.023 -0.146,0.138 -0.305,0.346Z" style="fill:none;stroke:#1b4798;stroke-width:0.35px;"/><path d="M173.925,60.75c-1.155,1.819 -1.967,3.293 -2.43,4.423c-0.467,1.13 -0.7,2.109 -0.7,2.938c0,0.876 0.342,1.313 1.023,1.313c0.407,0 0.935,-0.161 1.58,-0.484c0.647,-0.321 1.362,-0.778 2.144,-1.365c0.783,-0.586 1.618,-1.289 2.501,-2.106c0.885,-0.818 1.77,-1.735 2.654,-2.75c0.294,-0.323 0.47,-0.523 0.528,-0.605c0.056,-0.08 0.14,-0.121 0.256,-0.121c0.135,0 0.202,0.093 0.202,0.277c0,0.023 -0.005,0.046 -0.016,0.068c-0.012,0.024 -0.057,0.082 -0.136,0.174c-0.08,0.092 -0.205,0.231 -0.375,0.414c-0.17,0.186 -0.403,0.449 -0.698,0.795c-2.062,2.19 -3.929,3.877 -5.596,5.063c-1.668,1.187 -3,1.781 -3.998,1.781c-0.566,0 -0.993,-0.174 -1.277,-0.52c-0.283,-0.344 -0.423,-0.818 -0.423,-1.415c0,-1.475 0.656,-3.377 1.973,-5.704c0.542,-0.99 0.998,-1.716 1.36,-2.176c0.386,-0.117 0.681,-0.197 0.885,-0.244c0.204,-0.046 0.452,-0.079 0.747,-0.103l-0.204,0.347Zm4.051,-5.947l-0.783,0.553c-0.318,0.277 -0.687,0.599 -1.106,0.969c-0.421,0.369 -0.823,0.738 -1.208,1.105l-0.102,0.105c-0.295,-0.023 -0.444,-0.138 -0.444,-0.345c0,-0.115 0.103,-0.323 0.308,-0.622c0.205,-0.301 0.464,-0.613 0.782,-0.935c0.748,-0.83 1.417,-1.244 2.008,-1.244c0.09,0 0.193,0.014 0.306,0.035c0.113,0.024 0.26,0.08 0.443,0.173l-0.204,0.206Z" style="fill:#1b4798;fill-rule:nonzero;"/><path d="M173.925,60.75c-1.155,1.819 -1.967,3.293 -2.43,4.423c-0.467,1.13 -0.7,2.109 -0.7,2.938c0,0.876 0.342,1.313 1.023,1.313c0.407,0 0.935,-0.161 1.58,-0.484c0.647,-0.321 1.362,-0.778 2.144,-1.365c0.783,-0.586 1.618,-1.289 2.501,-2.106c0.885,-0.818 1.77,-1.735 2.654,-2.75c0.294,-0.323 0.47,-0.523 0.528,-0.605c0.056,-0.08 0.14,-0.121 0.256,-0.121c0.135,0 0.202,0.093 0.202,0.277c0,0.023 -0.005,0.046 -0.016,0.068c-0.012,0.024 -0.057,0.082 -0.136,0.174c-0.08,0.092 -0.205,0.231 -0.375,0.414c-0.17,0.186 -0.403,0.449 -0.698,0.795c-2.062,2.19 -3.929,3.877 -5.596,5.063c-1.668,1.187 -3,1.781 -3.998,1.781c-0.566,0 -0.993,-0.174 -1.277,-0.52c-0.283,-0.344 -0.423,-0.818 -0.423,-1.415c0,-1.475 0.656,-3.377 1.973,-5.704c0.542,-0.99 0.998,-1.716 1.36,-2.176c0.386,-0.117 0.681,-0.197 0.885,-0.244c0.204,-0.046 0.452,-0.079 0.747,-0.103l-0.204,0.347Zm4.051,-5.947l-0.783,0.553c-0.318,0.277 -0.687,0.599 -1.106,0.969c-0.421,0.369 -0.823,0.738 -1.208,1.105l-0.102,0.105c-0.295,-0.023 -0.444,-0.138 -0.444,-0.345c0,-0.115 0.103,-0.323 0.308,-0.622c0.205,-0.301 0.464,-0.613 0.782,-0.935c0.748,-0.83 1.417,-1.244 2.008,-1.244c0.09,0 0.193,0.014 0.306,0.035c0.113,0.024 0.26,0.08 0.443,0.173l-0.204,0.206Z" style="fill:none;stroke:#1b4798;stroke-width:0.35px;"/><path d="M183.895,59.987c-0.386,0.624 -0.709,1.158 -0.971,1.609c-0.259,0.449 -0.504,0.877 -0.73,1.278c-0.227,0.404 -0.437,0.802 -0.63,1.194c-0.192,0.391 -0.402,0.841 -0.628,1.346c-0.228,0.507 -0.409,0.93 -0.545,1.262c-0.137,0.336 -0.205,0.572 -0.205,0.709c0,0.162 0.068,0.241 0.205,0.241c0.136,0 0.464,-0.217 0.988,-0.655c0.52,-0.437 0.952,-0.79 1.291,-1.056c0.342,-0.262 0.629,-0.482 0.867,-0.657c0.239,-0.172 0.466,-0.328 0.681,-0.465c0.215,-0.137 0.471,-0.299 0.766,-0.482c1.384,-0.969 2.615,-1.719 3.692,-2.247c1.076,-0.53 1.854,-0.796 2.331,-0.796c0.589,0 0.884,0.345 0.884,1.037c0,0.184 -0.011,0.414 -0.034,0.691c-0.023,0.276 -0.125,0.748 -0.306,1.416c-0.182,0.739 -0.311,1.366 -0.392,1.883c-0.08,0.52 -0.118,0.94 -0.118,1.262c0,0.969 0.397,1.451 1.189,1.451c1.181,0 3.187,-1.451 6.023,-4.352c0.41,-0.416 0.795,-0.824 1.157,-1.228c0.363,-0.403 0.704,-0.778 1.021,-1.123c0.182,-0.186 0.288,-0.293 0.323,-0.328c0.033,-0.035 0.087,-0.053 0.154,-0.053c0.137,0 0.204,0.058 0.204,0.173c0,0.093 -0.047,0.189 -0.136,0.293c-0.091,0.104 -0.296,0.34 -0.613,0.709l-1.53,1.626c-1.703,1.842 -3.154,3.186 -4.356,4.025c-1.201,0.843 -2.28,1.262 -3.232,1.262c-1.158,0 -1.736,-0.681 -1.736,-2.039c0,-0.207 0.005,-0.421 0.017,-0.64c0.012,-0.219 0.045,-0.473 0.102,-0.76c0.058,-0.287 0.131,-0.645 0.221,-1.071c0.091,-0.427 0.205,-0.952 0.341,-1.572c0.045,-0.161 0.086,-0.307 0.119,-0.432c0.035,-0.129 0.051,-0.259 0.051,-0.399c0,-0.46 -0.216,-0.69 -0.646,-0.69c-0.273,0 -0.596,0.08 -0.969,0.241c-0.375,0.161 -0.926,0.484 -1.651,0.969c-1.565,0.966 -2.984,1.946 -4.254,2.936c-1.27,0.992 -2.291,1.902 -3.062,2.732c-0.362,0.391 -0.606,0.638 -0.732,0.743c-0.124,0.103 -0.232,0.155 -0.322,0.155c-0.271,0 -0.409,-0.253 -0.409,-0.759c0,-0.418 0.114,-0.981 0.34,-1.695c0.227,-0.715 0.517,-1.48 0.867,-2.298c0.352,-0.818 0.755,-1.647 1.209,-2.489c0.453,-0.842 0.919,-1.619 1.395,-2.333c0.454,-0.253 1.042,-0.46 1.769,-0.624Z" style="fill:#1b4798;fill-rule:nonzero;"/><path d="M183.895,59.987c-0.386,0.624 -0.709,1.158 -0.971,1.609c-0.259,0.449 -0.504,0.877 -0.73,1.278c-0.227,0.404 -0.437,0.802 -0.63,1.194c-0.192,0.391 -0.402,0.841 -0.628,1.346c-0.228,0.507 -0.409,0.93 -0.545,1.262c-0.137,0.336 -0.205,0.572 -0.205,0.709c0,0.162 0.068,0.241 0.205,0.241c0.136,0 0.464,-0.217 0.988,-0.655c0.52,-0.437 0.952,-0.79 1.291,-1.056c0.342,-0.262 0.629,-0.482 0.867,-0.657c0.239,-0.172 0.466,-0.328 0.681,-0.465c0.215,-0.137 0.471,-0.299 0.766,-0.482c1.384,-0.969 2.615,-1.719 3.692,-2.247c1.076,-0.53 1.854,-0.796 2.331,-0.796c0.589,0 0.884,0.345 0.884,1.037c0,0.184 -0.011,0.414 -0.034,0.691c-0.023,0.276 -0.125,0.748 -0.306,1.416c-0.182,0.739 -0.311,1.366 -0.392,1.883c-0.08,0.52 -0.118,0.94 -0.118,1.262c0,0.969 0.397,1.451 1.189,1.451c1.181,0 3.187,-1.451 6.023,-4.352c0.41,-0.416 0.795,-0.824 1.157,-1.228c0.363,-0.403 0.704,-0.778 1.021,-1.123c0.182,-0.186 0.288,-0.293 0.323,-0.328c0.033,-0.035 0.087,-0.053 0.154,-0.053c0.137,0 0.204,0.058 0.204,0.173c0,0.093 -0.047,0.189 -0.136,0.293c-0.091,0.104 -0.296,0.34 -0.613,0.709l-1.53,1.626c-1.703,1.842 -3.154,3.186 -4.356,4.025c-1.201,0.843 -2.28,1.262 -3.232,1.262c-1.158,0 -1.736,-0.681 -1.736,-2.039c0,-0.207 0.005,-0.421 0.017,-0.64c0.012,-0.219 0.045,-0.473 0.102,-0.76c0.058,-0.287 0.131,-0.645 0.221,-1.071c0.091,-0.427 0.205,-0.952 0.341,-1.572c0.045,-0.161 0.086,-0.307 0.119,-0.432c0.035,-0.129 0.051,-0.259 0.051,-0.399c0,-0.46 -0.216,-0.69 -0.646,-0.69c-0.273,0 -0.596,0.08 -0.969,0.241c-0.375,0.161 -0.926,0.484 -1.651,0.969c-1.565,0.966 -2.984,1.946 -4.254,2.936c-1.27,0.992 -2.291,1.902 -3.062,2.732c-0.362,0.391 -0.606,0.638 -0.732,0.743c-0.124,0.103 -0.232,0.155 -0.322,0.155c-0.271,0 -0.409,-0.253 -0.409,-0.759c0,-0.418 0.114,-0.981 0.34,-1.695c0.227,-0.715 0.517,-1.48 0.867,-2.298c0.352,-0.818 0.755,-1.647 1.209,-2.489c0.453,-0.842 0.919,-1.619 1.395,-2.333c0.454,-0.253 1.042,-0.46 1.769,-0.624Z" style="fill:none;stroke:#1b4798;stroke-width:0.35px;"/><path d="M208.529,58.295c-0.046,0.852 -0.131,1.699 -0.255,2.54c-0.125,0.843 -0.313,1.705 -0.562,2.593c-0.249,0.889 -0.561,1.825 -0.936,2.816c-0.373,0.991 -0.821,2.052 -1.343,3.18l-0.306,0.656c0.521,-0.297 1.156,-0.749 1.905,-1.347c0.748,-0.598 1.519,-1.266 2.314,-2.004c0.793,-0.737 1.566,-1.498 2.314,-2.283c0.748,-0.782 1.382,-1.508 1.906,-2.176c0.112,-0.184 0.191,-0.299 0.237,-0.346c0.045,-0.046 0.114,-0.068 0.204,-0.068c0.158,0 0.239,0.08 0.239,0.241c0,0.093 -0.098,0.255 -0.29,0.484c-0.194,0.23 -0.573,0.658 -1.14,1.279c-0.658,0.736 -1.282,1.406 -1.871,2.004c-0.59,0.601 -1.174,1.158 -1.753,1.677c-0.579,0.518 -1.163,1.013 -1.753,1.487c-0.588,0.47 -1.213,0.938 -1.87,1.398c-0.068,0.047 -0.186,0.121 -0.358,0.225c-0.169,0.105 -0.368,0.246 -0.595,0.431c-0.429,0.807 -0.845,1.545 -1.241,2.213c-0.398,0.668 -0.807,1.303 -1.225,1.902c-0.421,0.597 -0.858,1.18 -1.309,1.746c-0.456,0.563 -0.954,1.144 -1.497,1.744c-1.589,1.798 -3.058,3.156 -4.413,4.078c-1.352,0.923 -2.57,1.384 -3.652,1.384c-1.111,0 -1.667,-0.532 -1.667,-1.592c0,-1.035 0.543,-2.141 1.633,-3.317c0.564,-0.622 1.37,-1.308 2.417,-2.056c1.05,-0.75 2.501,-1.664 4.353,-2.748c0.567,-0.322 1.101,-0.641 1.599,-0.95c0.499,-0.312 1.033,-0.629 1.6,-0.952c0.566,-0.323 0.986,-0.564 1.259,-0.725c0.273,-0.162 0.567,-0.334 0.885,-0.518l0.374,-0.277c0.499,-0.969 0.963,-1.981 1.395,-3.041c0.431,-1.061 0.839,-2.246 1.225,-3.561l-0.239,0.416c-1.156,1.706 -2.359,3.041 -3.607,4.008c-1.247,0.969 -2.381,1.453 -3.402,1.453c-0.659,0 -1.168,-0.203 -1.531,-0.607c-0.363,-0.4 -0.544,-0.938 -0.544,-1.606c0,-0.437 0.079,-0.91 0.238,-1.416c0.158,-0.507 0.379,-1.021 0.663,-1.539c0.284,-0.519 0.63,-1.031 1.039,-1.538c0.408,-0.506 0.861,-0.979 1.361,-1.416c0.815,-0.784 1.654,-1.383 2.517,-1.798c0.861,-0.416 1.656,-0.623 2.381,-0.623c0.363,0 0.68,0.03 0.953,0.087c0.272,0.058 0.59,0.181 0.952,0.365c0.093,-0.324 0.148,-0.606 0.171,-0.849c0.024,-0.241 0.056,-0.571 0.102,-0.985l0,-0.277c0.046,-0.022 0.102,-0.044 0.17,-0.07c0.068,-0.021 0.136,-0.034 0.204,-0.034c0.249,0 0.499,0.104 0.749,0.312Zm-5.205,13.721c-0.138,0.07 -0.251,0.121 -0.34,0.156c-0.093,0.033 -0.194,0.088 -0.306,0.156c-0.115,0.069 -0.262,0.155 -0.444,0.26c-0.181,0.102 -0.441,0.258 -0.783,0.465l-1.394,0.83c-1.632,0.969 -3.006,1.815 -4.117,2.54c-1.111,0.726 -2.007,1.388 -2.688,1.988c-0.681,0.599 -1.167,1.152 -1.462,1.658c-0.295,0.507 -0.443,1.013 -0.443,1.521c0,0.393 0.131,0.727 0.391,1.002c0.26,0.277 0.607,0.416 1.038,0.416c0.59,0 1.394,-0.369 2.416,-1.107c1.021,-0.737 2.143,-1.774 3.368,-3.112c0.952,-1.013 1.803,-2.06 2.552,-3.143c0.748,-1.084 1.484,-2.294 2.212,-3.63Zm3.64,-10.611c-0.568,-0.644 -1.271,-0.967 -2.109,-0.967c-0.726,0 -1.464,0.203 -2.212,0.605c-0.749,0.403 -1.429,0.92 -2.041,1.555c-0.613,0.635 -1.119,1.338 -1.515,2.107c-0.397,0.774 -0.595,1.528 -0.595,2.266c0,0.576 0.152,1.03 0.458,1.364c0.306,0.334 0.711,0.501 1.208,0.501c0.613,0 1.265,-0.217 1.958,-0.657c0.691,-0.436 1.36,-1.007 2.007,-1.71c0.646,-0.702 1.227,-1.498 1.735,-2.385c0.511,-0.886 0.879,-1.779 1.106,-2.679Z" style="fill:#1b4798;fill-rule:nonzero;"/><path d="M208.529,58.295c-0.046,0.852 -0.131,1.699 -0.255,2.54c-0.125,0.843 -0.313,1.705 -0.562,2.593c-0.249,0.889 -0.561,1.825 -0.936,2.816c-0.373,0.991 -0.821,2.052 -1.343,3.18l-0.306,0.656c0.521,-0.297 1.156,-0.749 1.905,-1.347c0.748,-0.598 1.519,-1.266 2.314,-2.004c0.793,-0.737 1.566,-1.498 2.314,-2.283c0.748,-0.782 1.382,-1.508 1.906,-2.176c0.112,-0.184 0.191,-0.299 0.237,-0.346c0.045,-0.046 0.114,-0.068 0.204,-0.068c0.158,0 0.239,0.08 0.239,0.241c0,0.093 -0.098,0.255 -0.29,0.484c-0.194,0.23 -0.573,0.658 -1.14,1.279c-0.658,0.736 -1.282,1.406 -1.871,2.004c-0.59,0.601 -1.174,1.158 -1.753,1.677c-0.579,0.518 -1.163,1.013 -1.753,1.487c-0.588,0.47 -1.213,0.938 -1.87,1.398c-0.068,0.047 -0.186,0.121 -0.358,0.225c-0.169,0.105 -0.368,0.246 -0.595,0.431c-0.429,0.807 -0.845,1.545 -1.241,2.213c-0.398,0.668 -0.807,1.303 -1.225,1.902c-0.421,0.597 -0.858,1.18 -1.309,1.746c-0.456,0.563 -0.954,1.144 -1.497,1.744c-1.589,1.798 -3.058,3.156 -4.413,4.078c-1.352,0.923 -2.57,1.384 -3.652,1.384c-1.111,0 -1.667,-0.532 -1.667,-1.592c0,-1.035 0.543,-2.141 1.633,-3.317c0.564,-0.622 1.37,-1.308 2.417,-2.056c1.05,-0.75 2.501,-1.664 4.353,-2.748c0.567,-0.322 1.101,-0.641 1.599,-0.95c0.499,-0.312 1.033,-0.629 1.6,-0.952c0.566,-0.323 0.986,-0.564 1.259,-0.725c0.273,-0.162 0.567,-0.334 0.885,-0.518l0.374,-0.277c0.499,-0.969 0.963,-1.981 1.395,-3.041c0.431,-1.061 0.839,-2.246 1.225,-3.561l-0.239,0.416c-1.156,1.706 -2.359,3.041 -3.607,4.008c-1.247,0.969 -2.381,1.453 -3.402,1.453c-0.659,0 -1.168,-0.203 -1.531,-0.607c-0.363,-0.4 -0.544,-0.938 -0.544,-1.606c0,-0.437 0.079,-0.91 0.238,-1.416c0.158,-0.507 0.379,-1.021 0.663,-1.539c0.284,-0.519 0.63,-1.031 1.039,-1.538c0.408,-0.506 0.861,-0.979 1.361,-1.416c0.815,-0.784 1.654,-1.383 2.517,-1.798c0.861,-0.416 1.656,-0.623 2.381,-0.623c0.363,0 0.68,0.03 0.953,0.087c0.272,0.058 0.59,0.181 0.952,0.365c0.093,-0.324 0.148,-0.606 0.171,-0.849c0.024,-0.241 0.056,-0.571 0.102,-0.985l0,-0.277c0.046,-0.022 0.102,-0.044 0.17,-0.07c0.068,-0.021 0.136,-0.034 0.204,-0.034c0.249,0 0.499,0.104 0.749,0.312Zm-5.205,13.721c-0.138,0.07 -0.251,0.121 -0.34,0.156c-0.093,0.033 -0.194,0.088 -0.306,0.156c-0.115,0.069 -0.262,0.155 -0.444,0.26c-0.181,0.102 -0.441,0.258 -0.783,0.465l-1.394,0.83c-1.632,0.969 -3.006,1.815 -4.117,2.54c-1.111,0.726 -2.007,1.388 -2.688,1.988c-0.681,0.599 -1.167,1.152 -1.462,1.658c-0.295,0.507 -0.443,1.013 -0.443,1.521c0,0.393 0.131,0.727 0.391,1.002c0.26,0.277 0.607,0.416 1.038,0.416c0.59,0 1.394,-0.369 2.416,-1.107c1.021,-0.737 2.143,-1.774 3.368,-3.112c0.952,-1.013 1.803,-2.06 2.552,-3.143c0.748,-1.084 1.484,-2.294 2.212,-3.63Zm3.64,-10.611c-0.568,-0.644 -1.271,-0.967 -2.109,-0.967c-0.726,0 -1.464,0.203 -2.212,0.605c-0.749,0.403 -1.429,0.92 -2.041,1.555c-0.613,0.635 -1.119,1.338 -1.515,2.107c-0.397,0.774 -0.595,1.528 -0.595,2.266c0,0.576 0.152,1.03 0.458,1.364c0.306,0.334 0.711,0.501 1.208,0.501c0.613,0 1.265,-0.217 1.958,-0.657c0.691,-0.436 1.36,-1.007 2.007,-1.71c0.646,-0.702 1.227,-1.498 1.735,-2.385c0.511,-0.886 0.879,-1.779 1.106,-2.679Z" style="fill:none;stroke:#1b4798;stroke-width:0.35px;"/></g></svg>